/* XPM */
static char * OptionChecked_xpm[] = {
"14 14 106 2",
"  	c #FFFFFF",
". 	c #8E8E8E",
"+ 	c #D9D9D9",
"@ 	c #D8D8D8",
"# 	c #D6D6D6",
"$ 	c #D5D5D5",
"% 	c #D4D4D4",
"& 	c #D2D2D2",
"* 	c #D1D1D1",
"= 	c #CFCFCF",
"- 	c #DCDCDC",
"; 	c #CACACA",
"> 	c #393A3A",
", 	c #F1F1F1",
"' 	c #A2A2A2",
") 	c #E6E6E6",
"! 	c #A6A6A6",
"~ 	c #F8FAFC",
"{ 	c #4E4F50",
"] 	c #9B9B9B",
"^ 	c #E1E1E1",
"/ 	c #1A1A1A",
"( 	c #020202",
"_ 	c #F1F6FA",
": 	c #494B4C",
"< 	c #C7C7C7",
"[ 	c #989898",
"} 	c #222222",
"| 	c #191A1A",
"1 	c #C8CCCF",
"2 	c #E9F0F6",
"3 	c #46494C",
"4 	c #959595",
"5 	c #E3E3E3",
"6 	c #232323",
"7 	c #000000",
"8 	c #76787A",
"9 	c #E0EAF3",
"0 	c #44484B",
"a 	c #929292",
"b 	c #FEFEFE",
"c 	c #CDCDCD",
"d 	c #CECECE",
"e 	c #48494A",
"f 	c #DFE6EC",
"g 	c #D8E5F0",
"h 	c #41464A",
"i 	c #919191",
"j 	c #FCFCFC",
"k 	c #191919",
"l 	c #121212",
"m 	c #A9A9A9",
"n 	c #B5B5B5",
"o 	c #CFD6DB",
"p 	c #D0DFED",
"q 	c #3F4549",
"r 	c #8C8C8C",
"s 	c #1F1F1F",
"t 	c #090909",
"u 	c #040404",
"v 	c #050505",
"w 	c #070707",
"x 	c #7C8083",
"y 	c #DBE5ED",
"z 	c #C8DAEA",
"A 	c #3D4348",
"B 	c #848484",
"C 	c #D0D0D0",
"D 	c #181818",
"E 	c #2C2E2F",
"F 	c #D7E4EF",
"G 	c #CFDFEC",
"H 	c #C1D5E7",
"I 	c #3B4247",
"J 	c #808080",
"K 	c #FEFEFF",
"L 	c #D1D4D6",
"M 	c #0E0E0F",
"N 	c #050606",
"O 	c #AEB7BE",
"P 	c #CEDEEC",
"Q 	c #C7D9E9",
"R 	c #C0D5E7",
"S 	c #BAD1E4",
"T 	c #394047",
"U 	c #838383",
"V 	c #FCFDFE",
"W 	c #F5F8FB",
"X 	c #EDF3F8",
"Y 	c #C4CBD1",
"Z 	c #B3BCC4",
"` 	c #D6E4EF",
" .	c #B9D0E4",
"..	c #B4CDE2",
"+.	c #3A4249",
"@.	c #2A2B2B",
"#.	c #4C4D4E",
"$.	c #4A4B4D",
"%.	c #484A4C",
"&.	c #4B4F52",
"*.	c #4A4E52",
"=.	c #3F4449",
"-.	c #3B4147",
";.	c #394046",
">.	c #384046",
",.	c #1B1D1E",
"                            ",
". + @ # $ % & * = $ - ; > , ",
"'                 ) ! ~ { % ",
"]               ^ / ( _ : < ",
"[             ^ } | 1 2 3 < ",
"4           5 6 7 8 2 9 0 < ",
"a b c d     ] 7 e f 9 g h < ",
"i j k l m n 7 7 o 9 g p q < ",
"r j s t u v w x y g p z A < ",
"B   C D 7 7 E 9 F G z H I < ",
"J   K L M N O F P Q R S T < ",
"U V W X Y Z ` P Q R  ...+.< ",
"@.#.$.%.&.*.h =.A -.;.>.,.< ",
", $ < < < < < < < < < < < # "};
