/* XPM */
static char * OptionUnchecked_xpm[] = {
"14 14 78 1",
" 	c #FFFFFF",
".	c #8E8E8E",
"+	c #D9D9D9",
"@	c #D8D8D8",
"#	c #D6D6D6",
"$	c #D5D5D5",
"%	c #D4D4D4",
"&	c #D2D2D2",
"*	c #D1D1D1",
"=	c #CFCFCF",
"-	c #DCDCDC",
";	c #CACACA",
">	c #393A3A",
",	c #F1F1F1",
"'	c #A2A2A2",
")	c #F8FAFC",
"!	c #4E4F50",
"~	c #9B9B9B",
"{	c #F9FBFD",
"]	c #F1F6FA",
"^	c #494B4C",
"/	c #C7C7C7",
"(	c #989898",
"_	c #FAFCFD",
":	c #E9F0F6",
"<	c #46494C",
"[	c #959595",
"}	c #FBFCFD",
"|	c #F2F6FA",
"1	c #E0EAF3",
"2	c #44484B",
"3	c #929292",
"4	c #D8E5F0",
"5	c #41464A",
"6	c #919191",
"7	c #D0DFED",
"8	c #3F4549",
"9	c #8C8C8C",
"0	c #C8DAEA",
"a	c #3D4348",
"b	c #848484",
"c	c #EFF4F9",
"d	c #E7EFF6",
"e	c #D7E4EF",
"f	c #CFDFEC",
"g	c #C1D5E7",
"h	c #3B4247",
"i	c #808080",
"j	c #FEFEFF",
"k	c #F6F9FC",
"l	c #EEF4F8",
"m	c #E6EEF5",
"n	c #DEE9F2",
"o	c #CEDEEC",
"p	c #C7D9E9",
"q	c #C0D5E7",
"r	c #BAD1E4",
"s	c #394047",
"t	c #838383",
"u	c #FCFDFE",
"v	c #F5F8FB",
"w	c #EDF3F8",
"x	c #DDE8F2",
"y	c #D6E4EF",
"z	c #B9D0E4",
"A	c #B4CDE2",
"B	c #3A4249",
"C	c #2A2B2B",
"D	c #4C4D4E",
"E	c #4A4B4D",
"F	c #484A4C",
"G	c #4B4F52",
"H	c #4A4E52",
"I	c #3F4449",
"J	c #3B4147",
"K	c #394046",
"L	c #384046",
"M	c #1B1D1E",
"              ",
".+@#$%&*=$-;>,",
"'          )!%",
"~         {]^/",
"(        _]:</",
"[       }|:12/",
"3      }|:145/",
"6     _|:1478/",
"9    {]:1470a/",
"b   )cd1ef0gh/",
"i jklmneopqrs/",
"tuvwmxyopqzAB/",
"CDEFGH5IaJKLM/",
",$///////////#"};
