/* XPM */
static char * OptionCheckedLight_xpm[] = {
"14 14 103 2",
"  	c #FFFFFF",
". 	c #8E8E8E",
"+ 	c #D9D9D9",
"@ 	c #D8D8D8",
"# 	c #D6D6D6",
"$ 	c #D5D5D5",
"% 	c #D4D4D4",
"& 	c #D2D2D2",
"* 	c #D1D1D1",
"= 	c #CFCFCF",
"- 	c #DCDCDC",
"; 	c #CACACA",
"> 	c #393A3A",
", 	c #F1F1F1",
"' 	c #A2A2A2",
") 	c #F6F6F6",
"! 	c #E0E0E0",
"~ 	c #F8FAFC",
"{ 	c #4E4F50",
"] 	c #9B9B9B",
"^ 	c #F4F4F4",
"/ 	c #AFAFAF",
"( 	c #A3A4A5",
"_ 	c #F1F6FA",
": 	c #494B4C",
"< 	c #C7C7C7",
"[ 	c #989898",
"} 	c #F5F5F5",
"| 	c #B2B2B2",
"1 	c #ACADAE",
"2 	c #E3E7EB",
"3 	c #E9F0F6",
"4 	c #46494C",
"5 	c #959595",
"6 	c #C6CACD",
"7 	c #E0EAF3",
"8 	c #44484B",
"9 	c #929292",
"0 	c #EEEEEE",
"a 	c #B7BABD",
"b 	c #E5EDF3",
"c 	c #D8E5F0",
"d 	c #41464A",
"e 	c #919191",
"f 	c #FEFEFE",
"g 	c #ACACAC",
"h 	c #E1E1E1",
"i 	c #E5E5E5",
"j 	c #9EA0A3",
"k 	c #E0E7ED",
"l 	c #D0DFED",
"m 	c #3F4549",
"n 	c #8C8C8C",
"o 	c #B1B1B1",
"p 	c #A9A9A9",
"q 	c #A7A7A7",
"r 	c #A4A5A6",
"s 	c #9FA2A4",
"t 	c #C3C9CE",
"u 	c #DEE8F1",
"v 	c #C8DAEA",
"w 	c #3D4348",
"x 	c #848484",
"y 	c #AEAEAE",
"z 	c #A1A3A4",
"A 	c #9C9FA2",
"B 	c #A6ABB0",
"C 	c #D7E4EF",
"D 	c #CFDFEC",
"E 	c #C1D5E7",
"F 	c #3B4247",
"G 	c #808080",
"H 	c #FEFEFF",
"I 	c #E9ECEF",
"J 	c #A0A3A7",
"K 	c #989DA2",
"L 	c #CDD8E0",
"M 	c #CEDEEC",
"N 	c #C7D9E9",
"O 	c #C0D5E7",
"P 	c #BAD1E4",
"Q 	c #394047",
"R 	c #838383",
"S 	c #FCFDFE",
"T 	c #F5F8FB",
"U 	c #EDF3F8",
"V 	c #DAE2E9",
"W 	c #CED9E2",
"X 	c #D6E4EF",
"Y 	c #B9D0E4",
"Z 	c #B4CDE2",
"` 	c #3A4249",
" .	c #2A2B2B",
"..	c #4C4D4E",
"+.	c #4A4B4D",
"@.	c #484A4C",
"#.	c #4B4F52",
"$.	c #4A4E52",
"%.	c #3F4449",
"&.	c #3B4147",
"*.	c #394046",
"=.	c #384046",
"-.	c #1B1D1E",
"                            ",
". + @ # $ % & * = $ - ; > , ",
"'                 ) ! ~ { % ",
"]               ^ / ( _ : < ",
"[             } | 1 2 3 4 < ",
"5           } | ( 6 3 7 8 < ",
"9   0 0     - ( a b 7 c d < ",
"e f / g h i ( j k 7 c l m < ",
"n f o p q r s t u c l v w < ",
"x   0 y z A B 7 C D v E F < ",
"G   H I J K L C M N O P Q < ",
"R S T U V W X M N O Y Z ` < ",
" ...+.@.#.$.d %.w &.*.=.-.< ",
", $ < < < < < < < < < < < # "};
