/* XPM */
static char * OptionCrossed_xpm[] = {
"14 14 100 2",
"  	c #FFFFFF",
". 	c #8E8E8E",
"+ 	c #D9D9D9",
"@ 	c #D8D8D8",
"# 	c #D6D6D6",
"$ 	c #D5D5D5",
"% 	c #D4D4D4",
"& 	c #D2D2D2",
"* 	c #D1D1D1",
"= 	c #CFCFCF",
"- 	c #DCDCDC",
"; 	c #CACACA",
"> 	c #393A3A",
", 	c #F1F1F1",
"' 	c #A2A2A2",
") 	c #F8FAFC",
"! 	c #4E4F50",
"~ 	c #9B9B9B",
"{ 	c #6E6E6E",
"] 	c #050505",
"^ 	c #C1C1C1",
"/ 	c #9A9A9A",
"( 	c #919293",
"_ 	c #F1F6FA",
": 	c #494B4C",
"< 	c #C7C7C7",
"[ 	c #989898",
"} 	c #696969",
"| 	c #000000",
"1 	c #0A0A0A",
"2 	c #BDBDBD",
"3 	c #9E9E9E",
"4 	c #878A8C",
"5 	c #E9F0F6",
"6 	c #46494C",
"7 	c #959595",
"8 	c #7F7F7F",
"9 	c #070707",
"0 	c #858585",
"a 	c #989A9D",
"b 	c #E0EAF3",
"c 	c #44484B",
"d 	c #929292",
"e 	c #9FA2A5",
"f 	c #D8E5F0",
"g 	c #41464A",
"h 	c #919191",
"i 	c #9F9F9F",
"j 	c #B8BDC2",
"k 	c #D0DFED",
"l 	c #3F4549",
"m 	c #8C8C8C",
"n 	c #A0A0A0",
"o 	c #5D5F60",
"p 	c #070708",
"q 	c #A1ABB3",
"r 	c #C8DAEA",
"s 	c #3D4348",
"t 	c #848484",
"u 	c #8B8B8B",
"v 	c #95989B",
"w 	c #E7EFF6",
"x 	c #6E7377",
"y 	c #050506",
"z 	c #8895A0",
"A 	c #C1D5E7",
"B 	c #3B4247",
"C 	c #808080",
"D 	c #4F4F4F",
"E 	c #989C9F",
"F 	c #E6EEF5",
"G 	c #DEE9F2",
"H 	c #D7E4EF",
"I 	c #636A71",
"J 	c #5A636C",
"K 	c #BAD1E4",
"L 	c #394047",
"M 	c #838383",
"N 	c #FCFDFE",
"O 	c #F5F8FB",
"P 	c #EDF3F8",
"Q 	c #DDE8F2",
"R 	c #D6E4EF",
"S 	c #CEDEEC",
"T 	c #C7D9E9",
"U 	c #C0D5E7",
"V 	c #B9D0E4",
"W 	c #B4CDE2",
"X 	c #3A4249",
"Y 	c #2A2B2B",
"Z 	c #4C4D4E",
"` 	c #4A4B4D",
" .	c #484A4C",
"..	c #4B4F52",
"+.	c #4A4E52",
"@.	c #3F4449",
"#.	c #3B4147",
"$.	c #394046",
"%.	c #384046",
"&.	c #1B1D1E",
"                            ",
". + @ # $ % & * = $ - ; > , ",
"'                     ) ! % ",
"~   { ] ^       / ] ( _ : < ",
"[   } | 1 2   3 | | 4 5 6 < ",
"7     8 | 9 0 | | a 5 b c < ",
"d       8 | | | e 5 b f g < ",
"h       i | | | j b f k l < ",
"m     n | | o | p q k r s < ",
"t   u | | v w x | y z A B < ",
"C   D | E F G H I | J K L < ",
"M N O P F Q R S T U V W X < ",
"Y Z `  ...+.g @.s #.$.%.&.< ",
", $ < < < < < < < < < < < # "};
