#define sql_query_having_width 32
#define sql_query_having_height 32
static char sql_query_having_bits[] = {
  0x01, 0x00, 0x00, 0x00, 0x03, 0x00, 0x00, 0x00, 0x05, 0x00, 0x00, 0x00, 
  0x09, 0x00, 0x00, 0x00, 0x11, 0x00, 0x00, 0x00, 0x21, 0x00, 0x00, 0x00, 
  0x79, 0x00, 0x00, 0x00, 0x05, 0x00, 0x00, 0x00, 0x03, 0x00, 0x00, 0x00, 
  0x01, 0x00, 0x00, 0x00, 0x00, 0x00, 0x00, 0x00, 0xFC, 0xFF, 0xFF, 0x7F, 
  0x04, 0x00, 0x00, 0x40, 0x94, 0x4C, 0x95, 0x5C, 0x94, 0x4C, 0xB5, 0x42, 
  0xF4, 0x52, 0xD5, 0x5A, 0x94, 0x9E, 0x94, 0x52, 0x94, 0x92, 0x94, 0x5C, 
  0x04, 0x00, 0x00, 0x40, 0xFC, 0xFF, 0xFF, 0x7F, 0x00, 0x00, 0x00, 0x00, 
  0x00, 0x00, 0x00, 0x00, 0x00, 0x00, 0x00, 0x00, 0x00, 0x00, 0x00, 0x00, 
  0x00, 0x00, 0x00, 0x00, 0x00, 0x00, 0x00, 0x00, 0x00, 0x00, 0x00, 0x00, 
  0x00, 0x00, 0x00, 0x00, 0x00, 0x00, 0x00, 0x00, 0x00, 0x00, 0x00, 0x00, 
  0x00, 0x00, 0x00, 0x00, 0x00, 0x00, 0x00, 0x00, };
